<svg id="Livello_1" data-name="Livello 1" xmlns="http://www.w3.org/2000/svg" xmlns:xlink="http://www.w3.org/1999/xlink" viewBox="0 0 1920 1080"><defs><style>.cls-1{fill:url(#Sfumatura_senza_nome_7);}.cls-2{fill:#fff;}.cls-3{opacity:0.69;}.cls-4{fill:#ff0;}.cls-5{fill:#f0f;}</style><linearGradient id="Sfumatura_senza_nome_7" x1="774.64" y1="516.53" x2="1137.2" y2="487.76" gradientUnits="userSpaceOnUse"><stop offset="0" stop-color="#ed1e79"/><stop offset="1" stop-color="#fbb03b"/></linearGradient></defs><title>logosvgxxhdpi</title><path class="cls-1" d="M955.72,684a183.19,183.19,0,0,1-21-1.21,1.75,1.75,0,1,1,.41-3.48,178.32,178.32,0,0,0,20.55,1.19c4.75,0,9.56-.2,14.31-.57h.08a1.75,1.75,0,1,1,.29,3.49h-.09C965.47,683.81,960.56,684,955.72,684Zm49.28-6.79a1.75,1.75,0,0,1-.47-3.44A177.47,177.47,0,0,0,1037.06,661a1.75,1.75,0,1,1,1.6,3.12,180.39,180.39,0,0,1-33.18,13A1.59,1.59,0,0,1,1005,677.21Zm-104.53-1.92a2,2,0,0,1-.54-.08,182.22,182.22,0,0,1-32.67-14.27,1.76,1.76,0,1,1,1.72-3.06,178.26,178.26,0,0,0,32,14,1.75,1.75,0,0,1-.54,3.42Zm167.08-30a1.73,1.73,0,0,1-1.37-.66,1.76,1.76,0,0,1,.28-2.46,179.85,179.85,0,0,0,25.17-24.26,1.75,1.75,0,1,1,2.67,2.27,183.53,183.53,0,0,1-25.66,24.74A1.77,1.77,0,0,1,1067.55,645.24ZM839.14,641a1.74,1.74,0,0,1-1.13-.42,183.45,183.45,0,0,1-24.75-25.64,1.75,1.75,0,1,1,2.74-2.18,179.28,179.28,0,0,0,24.28,25.15,1.75,1.75,0,0,1-1.14,3.09Zm274-49.22a1.75,1.75,0,0,1-1.53-2.61,178.35,178.35,0,0,0,14-32,1.75,1.75,0,0,1,3.33,1.08,181.86,181.86,0,0,1-14.28,32.66A1.74,1.74,0,0,1,1113.14,591.78Zm-317.6-5.86A1.75,1.75,0,0,1,794,585a180.47,180.47,0,0,1-13-33.18,1.75,1.75,0,0,1,3.37-.95,177.54,177.54,0,0,0,12.78,32.53,1.75,1.75,0,0,1-1.56,2.55Zm339.28-61-.21,0a1.75,1.75,0,0,1-1.54-1.94,177.7,177.7,0,0,0,1.2-20.65c0-4.74-.19-9.55-.57-14.3l0-.37a1.76,1.76,0,0,1,3.5-.28l0,.36c.38,4.85.58,9.76.58,14.59a182.68,182.68,0,0,1-1.22,21.06A1.77,1.77,0,0,1,1134.82,525ZM776.4,518.33a1.75,1.75,0,0,1-1.74-1.62l0-.18c-.38-4.84-.57-9.75-.57-14.58a181.62,181.62,0,0,1,1.2-20.87,1.75,1.75,0,0,1,3.48.4A179.18,179.18,0,0,0,777.57,502c0,4.74.19,9.55.57,14.3v.18a1.75,1.75,0,0,1-1.6,1.89Zm352.76-63.78a1.75,1.75,0,0,1-1.69-1.27,177,177,0,0,0-12.81-32.52,1.75,1.75,0,1,1,3.12-1.6,180.82,180.82,0,0,1,13.06,33.16,1.74,1.74,0,0,1-1.2,2.16A1.59,1.59,0,0,1,1129.16,454.55Zm-344.66-6a1.7,1.7,0,0,1-.54-.09,1.76,1.76,0,0,1-1.13-2.21,182.14,182.14,0,0,1,14.25-32.67,1.75,1.75,0,1,1,3.06,1.71,178.58,178.58,0,0,0-14,32A1.76,1.76,0,0,1,784.5,448.54Zm312.6-56.49a1.78,1.78,0,0,1-1.38-.66,178.72,178.72,0,0,0-24.3-25.13,1.75,1.75,0,0,1,2.27-2.67,183,183,0,0,1,24.78,25.62,1.75,1.75,0,0,1-1.37,2.84Zm-278.34-4.86a1.75,1.75,0,0,1-1.33-2.89,182.9,182.9,0,0,1,25.63-24.76,1.75,1.75,0,0,1,2.18,2.74,179.3,179.3,0,0,0-25.14,24.29A1.75,1.75,0,0,1,818.76,387.19Zm224.8-40.65a1.74,1.74,0,0,1-.85-.22,178.64,178.64,0,0,0-32.05-14,1.75,1.75,0,1,1,1.07-3.33,181.13,181.13,0,0,1,32.68,14.23,1.75,1.75,0,0,1-.85,3.28Zm-169.74-3a1.76,1.76,0,0,1-.8-3.32,180.32,180.32,0,0,1,33.16-13,1.75,1.75,0,1,1,1,3.37,177.21,177.21,0,0,0-32.52,12.79A1.79,1.79,0,0,1,873.82,343.56ZM976.7,325h-.21a179.72,179.72,0,0,0-20.37-1.17c-4.75,0-9.56.2-14.3.57l-.28,0a1.75,1.75,0,1,1-.28-3.49l.27,0c4.85-.39,9.75-.58,14.59-.58a182.32,182.32,0,0,1,20.78,1.19,1.75,1.75,0,0,1-.2,3.49Z"/><path class="cls-2" d="M986.52,525.7c0-.39-.51-.71-1-.07l.29,1.13Z"/><path class="cls-2" d="M981.28,528.06c-.35,1-.55,2.4.54,2.66,0-1.36.46-1.22.39-2.76.5-.64,1.25-.73,1.41-.37,0-.38,1.06-.7.94-1.46a3.53,3.53,0,0,0-2.86,2.47C981.33,528.64,981.36,528.25,981.28,528.06Z"/><path class="cls-2" d="M921.45,579.29l.48-.22A1.45,1.45,0,0,0,921.45,579.29Z"/><path class="cls-2" d="M887.16,594.86c0,.36,0,.41.13.45l0-.15c0-.06,0-.12,0-.17S887.21,594.84,887.16,594.86Z"/><path class="cls-2" d="M890.82,587.76c-.1.15-.17.28-.25.41C890.73,588,890.85,587.89,890.82,587.76Z"/><path class="cls-2" d="M921.45,579.29l-1.21.56C920.37,580.16,920.91,579.63,921.45,579.29Z"/><path class="cls-2" d="M975.05,537.31a2.25,2.25,0,0,0,.33-.68c-.13.19-.27.36-.41.54Z"/><path class="cls-2" d="M937.37,564.86l.3-.26a2.34,2.34,0,0,0,0-.52Z"/><path class="cls-2" d="M949.62,553.83c-.31.22.18.95.32,1.33a1.15,1.15,0,0,1,.21-1A1.28,1.28,0,0,0,949.62,553.83Z"/><path class="cls-2" d="M969.94,537.28l.26-.41C970.14,537,970,537.15,969.94,537.28Z"/><path class="cls-2" d="M928.28,572.37a.64.64,0,0,0-.32-.14A.53.53,0,0,0,928.28,572.37Z"/><path class="cls-2" d="M976.09,586.43l-.15,0C976.05,586.54,976.12,586.56,976.09,586.43Z"/><path class="cls-2" d="M977.19,605.93l-.12-.24a2.4,2.4,0,0,0-.48.09Z"/><path class="cls-2" d="M898.17,574.57l0,0C898,575,898.12,574.82,898.17,574.57Z"/><path class="cls-2" d="M957.56,447.53c-1.35,1.14.13-2.76-1.62-.92C956.34,446.54,956.3,449.14,957.56,447.53Z"/><path class="cls-2" d="M974.66,537.52c-.16.16-.32.32-.49.47A2.48,2.48,0,0,0,974.66,537.52Z"/><path class="cls-2" d="M955.94,446.61h0l-.18.2Z"/><path class="cls-2" d="M913.35,542.87a1.16,1.16,0,0,0-.5.15C912.93,543.05,913.07,543,913.35,542.87Z"/><path class="cls-2" d="M900.56,565.78l.39-.53A2.63,2.63,0,0,0,900.56,565.78Z"/><path class="cls-2" d="M918.25,530.1a1.5,1.5,0,0,0,.48-.82.6.6,0,0,0-.16.08A.81.81,0,0,1,918.25,530.1Z"/><path class="cls-2" d="M924.41,517.34c-.09,0-.18.11-.27.16l-.15.42Z"/><path class="cls-2" d="M967.81,544.75a2.62,2.62,0,0,1-.69.74C967.7,545.2,968.18,547.21,967.81,544.75Z"/><path class="cls-2" d="M974.71,537a.53.53,0,0,1-.05.56c.11-.11.21-.23.31-.35C974.91,537,974.83,537,974.71,537Z"/><path class="cls-2" d="M912.36,526.6l1.1-2A18.28,18.28,0,0,0,912.36,526.6Z"/><path class="cls-2" d="M971.79,444.83v.52A.72.72,0,0,0,971.79,444.83Z"/><path class="cls-2" d="M916.24,518.58a3.41,3.41,0,0,0,1.09-.88.78.78,0,0,0-.09-.33Z"/><path class="cls-2" d="M967.11,545.5h0Z"/><path class="cls-2" d="M971.27,559.68c-.34-2.08-1.27-.79-2-1.13-.71-2.45.65-1.29,1.09-2.23-.54-1.51-1.76-2.55-1.89-3.72.17-.12.2-.35.48-.12-1.14-1.53-.71-4.91-2.1-6.7a.64.64,0,0,1,.25-.28,2.51,2.51,0,0,1-1.51.49c-.15-1-.92-1.68-.22-2.13,0,.59.34.6.6.85l-.43-1c1-1,.52,1.31,1.3,1.22-.55-1.89-1.68-4.06-1.55-5.58,1-.42.74,3.43,1.44,1.36l-.14,2.33c1.45-1.93,0,1.41,1.62-.4a11.24,11.24,0,0,0-.47-3.17,9.85,9.85,0,0,1-.43-3.17c-.64-.62-.83.31-1.47-.32-1.41-4.21,2.3-3.59.69-6.62-.75-.77-2.09-1-1.53-3.3l1.23.7c-.06-2.93-1.83-1.58-1.18-4.69.47.52.51,2.28.63,1.83.8-2-.74-1.37-.81-2.9l1-.37c-.14-1.55-.43-3.18-.73-4.86s-.52-3.4-.65-5.13c.32.19.65.77,1,0a30.55,30.55,0,0,1-.23-3.36c0-1.14.08-2.3.18-3.45.21-2.31.53-4.59.93-6.67l-.85-1.64c0-.37.44-.67.6-.26.4-1.62-.57-.11-.9-.91,0-.94.58-1.21.82-.61-.65-2.91-1.19-8.34,0-11.3l.22.61c.56-2.33-1.62-2.83-.57-5l.12.44c.87-5.1.76-10.88,2.67-14.59-1.2-.93,1.32-5-.42-5.57,1.37-2.77,1.54-1.88,2.84-5.86.28-1.08-.83-1.83-.76-3.21l.94.14-.64-2,1.3-.76v-1.31c-.15.5-.63,1-.88.86,0-2.06,1.61-4.67,2.1-4.62l.2-4.82c.35.19.31,1,.41,1.66-.41-2.69,1.08-.24.71-2.7-.28.26-.52-.28-.7-.38.82-1,1.4-3.58,1.61-5.54l.56.52c1-3.4,1.42-7.31,2.4-11.18-.65,1.31-1.67.72-1.49-.44l1.08-.21c-.42-.89-.66,1.09-1-.6.47-1.42,1.35-.69,1.46.22l.1-1.85c.31,0,.37.42.71.62-.43-.87,1.73-2.81.93-4.13l.32,0a49.38,49.38,0,0,0,.92-4.88c.1-.71.18-1.43.26-2.2s.18-1.6.2-2.79c-.44-.08-.57-.51-.82-1.36l-.11-.37-.07-.18-.09-.25c-.07-.16-.15-.33-.23-.49a4.22,4.22,0,0,0-.42-.65l-.12-.16-.16-.18-.39-.37a3.54,3.54,0,0,0-1-.56,3,3,0,0,0-1.08-.23,3,3,0,0,0-.52,0l-.42.1a4.5,4.5,0,0,0-.51.08,3.25,3.25,0,0,0-.37.11,3.58,3.58,0,0,0-.63.27c-.17.08-.34.18-.49.27l-.36.25-.18.13-.14.12-.29.23-.49.45a19.5,19.5,0,0,0-1.61,1.72,18.34,18.34,0,0,0-2.48,3.69c-.59,2.06.36.88.39,1.95-.78-.23-2,2.43-1.85.82a50,50,0,0,0-3.08,8.37c.49-.3.84-.73,1-.36-.22.77-1.06,1.51-1.35,1.24v-.22c-1,5-6.76,9.42-6.83,13.67v-.24l-.85,4.06c-.88,1.65-.09-1.27-1.09-.2-.56,4.53-3,6.24-3.61,9.88-3.25,1.61-3.84,9.1-6.72,11.93l.58,0c.1,1.1-.76.94-1.16,1.55.43.08.87-.76.9-.09-2.74,7.78-7.66,15.15-11.61,22.6-1.41,2.74,1.85,2.77-1,5.75L932,484.8c-1.49,6.16-5.37,11.51-7,17.46-.06-.43-.33-.57-.07-1.11-1.22.85-2.06,4.29-1.53,4.56-.46.83-.58,0-1.11.37-.95,1-.53,3.32-1.49,3.63-.16.05-.06-.43,0-.67,0,.91-1.77,3.49-.65,3.13-1.35,1.89-1.54,4.11-2.79,5.53.35,1.49-2.11,3.32-1.06,4.25-1.18-.75-2.75,3.11-2.8,4.7-.16-.62-.94.94-1.22.17-.7,1.49-1.13,3-.36,3-2.83,2-1.48,6.07-4.16,6.66-1.49,4.72-3.05,9-4.73,13.1-1.17-.76,2-4.42.66-4.9-1.35,4-1.36,6.68-3.51,10.25-.65.87-.27-.82-.32-1.25-1.35,4-3.73,7.17-4.71,10.85-.11-.07-.06-.49,0-.88-.29.68-.94,1.44-.34,1.65l.16-.72c1.34-.64.42,3.46.8,3.79-1.07-1.92-2,3.1-3.21.31-.11.49-.11,1.17.32,1.25-.43.59-.75.69-.86-.18-.85,2.52.16,2-.89,4.12-.28-.14-.17-.63-.39-1a7.08,7.08,0,0,1-1.08,4.42c-.12-.19-.44-.08-.17-.63-1.41,3.2-1.09,6-3.11,9.32-.79-1.56-.91,1-2,.81-.16.7-.3,1.4-.44,2.11l.82-.6c-.68,1.73-.42,3.53-1.19,5,0-.5-.06-1-.07-1.49-.14.58-.27,1.16-.38,1.77,0,.15,0,.3-.07.46l-.09.54c0,.4-.1.79-.12,1.19.12-.45.27-.88.42-1.3l.06-.16.06-.12.11-.24.22-.47c.06,1,.45,1,.68,1.11s.32.18,0,1.49c0-.26-.11.23-.19.95s-.1,1.68-.18,2.39h0a7.47,7.47,0,0,0,1.65,1.4c.18.1.36.24.56.36s.41.24.63.37-.12.48-.37.72-.52.42-.44.59a2.5,2.5,0,0,1,.7-.08h.85a13.47,13.47,0,0,0,2-.13,9.4,9.4,0,0,0,2-.55l.21-.1.17-.09.29-.2a1.68,1.68,0,0,0,.42-.47.8.8,0,0,0,0,1c.17-.33.33-.66.49-1,.91,0,1.06,0,1.11.49,1.26-.44.91-.7.66-.92s-.24-.21-.12-.33a3.55,3.55,0,0,1,1.2-.42c-.19.16,0,.21-.43.54,2.95-1,5-3.17,7.5-4.29,1.32.55-1.92,1.5-.61,1.85,3.36-2.29,6.17-5.68,9.41-7.71l-.65.31c-.54-1.63,2.79-1,3.87-2.81-.31.38,0,1.1,0,.87a16.66,16.66,0,0,0,3.2-2.65c1.07-1.08,2.21-2.34,3.59-3.78l-.12.63c1.45-.66,3.3-2.37,4.71-3.28.12-.63.9-1.18.06-1.29,5.49-1.42,6.68-7.22,11.4-8.67-.41.36-.74,1.12-.41.84l2.68-2.82c-.7-.34-.67,0-1.65.12a4.5,4.5,0,0,1,1.43-2.23c-1,1.5.76.86,1.59.66-.24-.08-.2-.43-.4-.56,2.35-.37-.69-1.3,2-2.47l.14.38a11,11,0,0,1,1.93-2.48c.89.31-.56,1-.17,1.57,1.14-1.07,1.27-3.21,2.88-3.54-.35.61-1.06,1.25-1.4,1.86a4.52,4.52,0,0,0,2.72-1.25l-.1.06,2.27-1.43-.68.25c0-2.91,2.7-3,3.72-5.76-1,2.7.2.86.68,1.68.67-.26,1.62-.73,1.58-.34.42-1.4,1.94-1,2.5-3,.26.17,1-.87,1.31-.13,1-1.26-.64-.13-.79-.5,1.16-2.43,5.16-3,6.85-6.51,1.88-2.53,1.61-3.66,3.36-6,1-.31.17,1.34.17,1.34a7.63,7.63,0,0,0,3.09-2.86c0,.4.34.35.9.29.81-.87-.17-1.34,1.26-2.09a4.21,4.21,0,0,1,0,1.69c.83-1.15,1.45-2.5,2.31-3.69.64.12-.09,1.18-.23,1.77,1-1.28,2.74-3.22,2.53-4.17l-1,.5c.4-.43.7.31.49.72-.56,1.43-1.66,1.16-1.92,1l.62-.84c-2-.57-2.81,3-4.39,4.36l-.25-1.52-.82,2.22c-.55.07-1.27-.24-.66-1.08-1.51.55-.64,1.23-2.06,1.58-.17,0-.17-.08-.11-.2l-.8,1.26c0-.39-.79-.5,0-1-2.41,1.23-2.41,3.56-3.79,3.51l.11-.2c-2.36,2.76.38.92-.86,3.57l-2.91-.48.38.93c-.3.23-.89.67-1,.31-.58,1.41.45.14.27,1.13-1.89.58-3.37,3.62-4.68,2.78,0,1,1.64-.74.56.91-1.49-.82-1.45,1.69-3.15,2.25-.19-1,1.25-1.67-.46-1.12.22,1.7-2.57,1.89-3.41,3,.7.87-1.91,2.35-3.39,4.16-.15-.39-3.66,2.43-5.55,3.53l-.07-.18c.43,1.12-1.38,2.42-2.44,3.66-.4-.55-.35-.94.11-1.75l-1.14,1a2.87,2.87,0,0,1-.93,1.7l-.26-.88c-1.5,1.34-2.43,3.41-4.78,4.65.4.7,3,.34,1.24,2.52-.35-.26-.9-.75-.46-1.35-.15.2-.41.82-.89,1L932,571c-1.11.52-.08.85-.85,1.41-.38-.47-.81.13-1-.33.15-.2.79-.34.91-.76a5.26,5.26,0,0,1-2.72,1.08c.29.2.52.63,0,1.19-1.53,1.32-1-.13-2.11.39-.1.63-1.37,1.12-.82,1.84-.46.37-.81.11-1.14.06-.56,1-3.7,3.17-2.18,3.18l.24-.12s-.07.08-.1.14h0c-2.11,2.84-5.88,4-8.34,6.37l-.18-.25c-1.4,1.51-3.48,2.85-4.26,4.23-.49.35-1.48.36-1.48-.08-1.12,1.07-1.07,1.47-3.19,2.3,1-1.31-.71-.09,1.09-1.21-1.8.9-2.43.76-3.77,2.6.1-.52-.35-.53-.9-.31a4.86,4.86,0,0,0-1.55,1l1.47-.24a14.24,14.24,0,0,1-2.5,1.48l-.08-1.13c-2,.45-3.29,1.75-4.58,2.81a10.69,10.69,0,0,1-1,.73,4,4,0,0,1-1,.52,2.57,2.57,0,0,1-1,.19.62.62,0,0,1-.39-.11,1.06,1.06,0,0,1-.28-.28c-.2.4,0,.51.34.57l.23,0a1.22,1.22,0,0,1,.31.06c.16.07.23.2.08.46l-.3,0h-.23a1.36,1.36,0,0,1-.44-.11,1.58,1.58,0,0,1-.36-.2,1.38,1.38,0,0,1-.27-.27c-.31-.38-.31-.82-.4-.84a.39.39,0,0,0-.33-.24,8.88,8.88,0,0,1-1.07.11c-.37,0-.7-.31-.51-.94a1.84,1.84,0,0,1-.89.33c-.34,0-.7-.27-.73-1.17a2.77,2.77,0,0,1,.21-.54,2.25,2.25,0,0,1,.3-.42,1.17,1.17,0,0,1,.66-.41c.44-.08.8.21.82.76s-.19.46-.31.45a.84.84,0,0,0,.17.46c.09.09.24.08.46-.08l-.35-.13a1.37,1.37,0,0,0,.16-.18l.07-.11.09-.22c.13-.3.26-.63.4-.91.28-.58.55-1,.75-.62.07-1.35-.41-.72-.87.17,1.15-2,1.15-3.39,2.4-5.52-.33.29-.86.46-.71.1,1.81-3.15,0-1.74.81-4.06,1.09-1.05,1,1,1.61-1.45,1-1.22,1,.11,1,.78.3-2.34,2.21-3.63,2.88-4.74l-.25,1.21a7.11,7.11,0,0,1,.67-1.78l-1,.3c.42-.58.68-1.12,1-1-.11-.86-1.34,0-1.3-1.61.74-.68.9-2.75,1.91-2.62-1.59,2.51,1,.14.06,2.45a4.28,4.28,0,0,1,.8-1.58c.14-.05.13.17.1.37,2-2.15-.42-1.65.9-4.27.33.58,1.23-.15,1.34-.63-.53,1.05-1.07.1-1-1.06,1.22-1.49.63-2,1.11-2.83l-.68.92c-.32-.59.17-1.4.6-2.65.43.09-.27,1.2.1.86-.2-1.74,2.37-2.51,2.7-4.62.75-.68,1,.38,1.55-.25.39-2.36,1.78-1.87,2.32-4.28-1,.29-.86.48-.74-1.36l-1.3,3.76.17-2.74c-.54,1.06-.7,2.46-1.14,3,0-1.35.11-1.16-.69-.92,1.72-1,.87-3.17,2.38-4.53l1.6.87c2-2.18,1.41-4.92,3.46-8l-.81.92c-.43-.77.92-2.08,1.18-3.28.5.37,1-.2,1.59-.49-.43-.14,1.23-2.39.29-3.23l1.44-1.12c1.61-2.52-.06-3.81,1.38-6.28.22,1.07,1.18.09.76,2,.42-.86.9-1.58.53-1.78.59-.33.42-2.73,1.32-3.27-.06-.48-.57-.87-.06-1.81.16,0,.27.13.27.13-.27-.13.36-1.68-.65-1.14,3-1.81,3.44-7.44,6-9,.72-2,1.62-4.31,2.39-6,.11.19.27.14.06.43,1.63-2.11-.89-2.19.95-4.6,1.53-1-.19,1.65.55,1,2,.48,1.28-3.35,3.18-4.66l-.1.49c1.27-1.1.9-3.7,2.08-5.89,0,0,.11.18.27.14-.21-2,.84-5,1.59-7.34.4,1-.08,1.16.83,1.09.35-1-1.29-.26-.59-2.29.68-.46,1.66-1.71,2.52-1.54l-.8,1.86c1.43-.48,1.06-2.39,1.68-3.28l.38.32c1.15-2.88.06-3.43,1.52-6.42l-.47.16c-.34-2.15,1.25-1.11,1.19-3.13h1.33a54.68,54.68,0,0,1,1.34-6.37c.32,1.48-.29,4-.45,5.61.5-1.08,1.59-3.72,1.29-4.54-.09.49-.06,1.16-.43,1.52a10.25,10.25,0,0,1,1.08-5.83c2,1.35,3.07-5.39,5.44-6.22.92-4.19,3.73-7.46,5.57-12-2.37.85.53-1.33-1.31-1.81.35-1.09.55-1.48.7-1.52l2.43-2.7c.83-.53-.06,1.15.37,1.23,1.13-2.22,1.15-.64,2.27-1.94-.75,0-.53-1.19.28-2.38l-1.6,1.48c.48-3.59,2.66-2.12,3.16-5.73l.1,1.26c.4-1.79,2.69-6.07,2-8.29.33-.21,1-.38.77.4,1.95-3.83,2.43-9.39,4.68-12l.28.49c.21-.78-.2-1.62.64-2.33.15.13.28.49.46.17a6.28,6.28,0,0,1,.87-3.08l.08,1a12.38,12.38,0,0,0,1.88-4.79,17,17,0,0,1,1.21-4.47c.57.38,1.37-.07,2-.43a.89.89,0,0,1,.23-.1c.07,0,.14-.07.18-.06h.06s0,0,0,0h0l-.08-.08a3.17,3.17,0,0,1-.3-.34,7.86,7.86,0,0,1-.54-.71,3.67,3.67,0,0,1-.38-.56c-.11-.24-.19-.33-.25-.48a1.55,1.55,0,0,1-.07-.23c0-.09,0-.08,0-.14,0-.22,0-.22,0-.24h0s0,0,0,0a.4.4,0,0,1-.15.12,1.08,1.08,0,0,1-.3.19l-.16.06-.24.1L976,402a2.89,2.89,0,0,1-.69.21,8.47,8.47,0,0,1-.93.2l-.48,0-.61.08-.24,0h0v.38c0,.37,0,.81,0,1.28,0,1-.07,2-.1,2.91,0,2-.07,4-.34,6.26-2.1,2.36-2.91,9.08-4.75,13.32.4-.62,1,.36.95,1.17-.52,1,.25,3.08-.93,2.64l.11-.36c-1.37.51-1.54,2.72-1.94,4.39l1.53.63c-1.64,1.93-2,4.86-2.31,7.54s-.46,5.11-1.72,6.13c.21,1.14,0,2.46.18,3.59l-.85-.21a45,45,0,0,0-1.43,8.1l-.51-.84c-.36,2.07,2.1,3,1.89,4.9l-1.37.39c-.47,3.62-2,7.18-1.25,10.9a.77.77,0,0,1-.53-.82c-.23,1.71-1.52,6.57.32,6.1-1.17-.06-.43,3.75,0,5.75l-.84-.37c1,1.74,1.28,1.81,1.45,4.14-.14.54-.71.45-.45-.27-.55,1.81.74,1.47.17,3.66l-.51-.85c-.15,1.88.16,1.74.75,2.8.3,1.2-.33,3.56-1.1,3.82a2.44,2.44,0,0,1,.85,2.42c-.3.14-.47-.26-.56-.47a9,9,0,0,0,.13,3.8,5.37,5.37,0,0,1,0,3.05.62.62,0,0,0-.51.37c0-1.25,0-2.38.05-3.18a3.88,3.88,0,0,1,.1-1.15c-.8,0-1,2-2,.4.29.82.73,1.92,1.1,3.07a7.49,7.49,0,0,1,.44,3.32,1.15,1.15,0,0,1-.27.27l-.09-.21a2.36,2.36,0,0,0,.14,1.25,8.81,8.81,0,0,0-.22,1.65c-.32.12-.41.7-.4,1.39s.11,1.45.12,2c.86-.11.77,1.21,1.44-.05-.06.16-.11-.19-.18-.86a1.85,1.85,0,0,0-.1-.42l.08.06c-.06-.66-.09-1.52-.12-2.5a2.92,2.92,0,0,1,.4,2.73c.57.5,1.17,1.05,1.45,1.36-1.16,1.41-1.71,4.11-2.44,4.51.3,1.54.52,3.35.84,5a8.06,8.06,0,0,0,1.68,4.06c.28.86-.38,1-.61,1.39-.21-.49-.23-1.09-.49-1.35.57,1.71.61,5.16,1.78,5.47-.32,2.24-1.16-1.14-.69,1.86l-.39-.37c-.58,3.06.4,5.41,1.35,7.81a20.71,20.71,0,0,1,1.24,3.76,12.13,12.13,0,0,1,0,4.54c.07-.48.11-.71.28-.83a39.32,39.32,0,0,0,.57,5.69c.34,1.9.79,3.78,1.2,5.67s.88,3.76,1.18,5.65a35,35,0,0,1,.53,5.67c.14,2.14.87,2.21,1.72,3.33l-.81.66,1.56,1.89c.74,1.43.49,2.87.39,4.4a6.84,6.84,0,0,0,1.12,4.87l.47-.65c.26,1.39,1.55,4.23.79,4.19.15.11.75.28.58.9l-.46.17,1.78,3.12c.43,2.69-2,.14-.94,4,.62,1.36,2.59,3.58,2.74,3-.16-.58-.16-1.54.29-1.72l.64,1.2c1.44-.2,3.14.32,3.14-3.07l-1.5-1.91.45-.9.6,1.81c.31-1.22-.45-1.7-1-2.33a1.53,1.53,0,0,0,.47-1.13l-1.94-1.74c.47-.42,1.35.64,1.23-.87-.9-.82-.93,1.3-1.81-.24.33-1.22.93-1.06.06-2.13.31-.27.61-.08.89.36-.72-1-1-2.83-1.86-3.19.47-1.29-1.15-3.65.18-3.88a7,7,0,0,1-1.83-2.66c2,1.46-.81-3.8,1-3.71A5.07,5.07,0,0,1,973.4,577a17.12,17.12,0,0,0-1.36-4c.14.11.43.33.4.56a8.48,8.48,0,0,1,.26-2.81c-1.21.07-1.91-2-2.86-3,.81-1.91,1.59.75,2.58,0-.94.27-1.53-2.73-2.22-2,.47-1.43.14-1.18,1-2-1.53,0-.47-1.16-1.57-2.07.41-2,1.31-.72.5-2.69C970.42,558,971.27,559.68,971.27,559.68Zm-7-49h0l.06,1Zm0-4.17a15,15,0,0,0,0,1.81c-.3.15-.61,0-.6-.43C963.77,508.11,963.93,507.12,964.2,506.5Zm-5.91,9c-.13-.67,0-.9.21-1,0,.32,0,.69.13,1.17l.11.08A1.17,1.17,0,0,1,958.29,515.49Z"/><path class="cls-2" d="M959.47,516.66a1,1,0,0,1,.08.28,3.65,3.65,0,0,0,.18-.41l-.28-.23Z"/><path class="cls-2" d="M922,579l-.08,0a.42.42,0,0,1,.22,0C922.07,579.05,922.06,579,922,579Z"/><polygon class="cls-2" points="971.33 449.47 971.12 449.44 971.24 449.83 971.33 449.47"/><path class="cls-2" d="M941.64,566.37a.55.55,0,0,0,.37,0S941.81,566.33,941.64,566.37Z"/><path class="cls-2" d="M949.29,559.88l1.26-.71A10.88,10.88,0,0,0,949.29,559.88Z"/><path class="cls-2" d="M955.31,555.06a1.1,1.1,0,0,0-.13-.38h0Z"/><path class="cls-2" d="M895.14,563.67a1.57,1.57,0,0,0,.1-.28C895.4,562.69,895.24,563.14,895.14,563.67Z"/><path class="cls-2" d="M883.94,599.43a3.87,3.87,0,0,1-.71-1.24C883.26,599.05,883.52,599.67,883.94,599.43Z"/><path class="cls-2" d="M912.24,526.81s0,0,0,0l.11-.22Z"/><path class="cls-2" d="M883.24,596a3.67,3.67,0,0,0,0,2.23C883.19,597.48,883.3,596.66,883.24,596Z"/><path class="cls-2" d="M980.11,532.67l.29-.23a.19.19,0,0,1-.06-.13Z"/><path class="cls-2" d="M980.34,532.31l.23-.36C980.43,532.08,980.32,532.2,980.34,532.31Z"/><path class="cls-2" d="M981.05,531.2l-.48.75C980.79,531.75,981.08,531.51,981.05,531.2Z"/><path class="cls-2" d="M972.39,539.35l.13.31A.47.47,0,0,0,972.39,539.35Z"/><path class="cls-2" d="M970.19,541.53c.59-.45,1.81-.77,2.43-1.62l-.1-.25C972.49,540.33,970.34,540.66,970.19,541.53Z"/><path class="cls-2" d="M958.05,547.44l2.08-1.57c-.56.06-1.3.13-.49-.72C956.57,546.62,960.65,545.25,958.05,547.44Z"/><path class="cls-2" d="M951.78,552.47c.93-1-.34-.35-.41-.54C950.92,552.75,950.81,553,951.78,552.47Z"/><path class="cls-2" d="M907.24,589.41l-.34-.73C906.1,589.39,907.07,588.94,907.24,589.41Z"/><path class="cls-2" d="M900.09,598.87l1.18-.11c0-.29.05-.59.07-.88C900.93,598.22,900.51,598.54,900.09,598.87Z"/><path class="cls-2" d="M891.9,596.66c.12-.08.23-.18.34-.26-.45.3-.88.52-1.34.8Z"/><path class="cls-2" d="M924,519.94l-1-.12C922.84,520.55,923.76,521.16,924,519.94Z"/><path class="cls-2" d="M941,481.3a2.12,2.12,0,0,0,1.28-2C941.82,480.1,941.08,480.81,941,481.3Z"/><polygon class="cls-2" points="965.89 436.99 965.75 436.08 965.68 437.72 965.89 436.99"/><path class="cls-2" d="M902.77,590.85c0,.32.45.75.78.36l-.32-1Z"/><path class="cls-2" d="M906.57,590.42a2.13,2.13,0,0,0-.66-2.38c.12,1.14-.24.89,0,2.2a.63.63,0,0,1-1-.11c0,.31-.75.27-.59.94a1.5,1.5,0,0,0,2-1.22C906.47,589.92,906.49,590.24,906.57,590.42Z"/><path class="cls-2" d="M945.84,562.13l-.32.11A.56.56,0,0,0,945.84,562.13Z"/><path class="cls-2" d="M968.77,542.66c-.15.17-.15.31-.09.39C968.78,542.85,968.87,542.68,968.77,542.66Z"/><path class="cls-2" d="M973.24,539.82,973,540C973.12,540,973.24,539.93,973.24,539.82Z"/><path class="cls-2" d="M945.84,562.13l.82-.26C946.5,561.58,946.19,561.94,945.84,562.13Z"/><path class="cls-2" d="M910.47,584.49a1,1,0,0,0-.19.47,2.91,2.91,0,0,1,.26-.33Z"/><path class="cls-2" d="M936.05,571.08l-.19.16a3.42,3.42,0,0,0,.1.45Z"/><path class="cls-2" d="M928.13,577.46c.21-.12-.26-.85-.42-1.2a.83.83,0,0,1,0,.77A2.08,2.08,0,0,0,928.13,577.46Z"/><path class="cls-2" d="M914.38,586l-.16.27C914.26,586.14,914.34,586,914.38,586Z"/><path class="cls-2" d="M941.86,566.69a.72.72,0,0,0,.26.18A.68.68,0,0,0,941.86,566.69Z"/><path class="cls-2" d="M1016.07,409.72a.57.57,0,0,0,.08.13C1016.15,409.75,1016.14,409.68,1016.07,409.72Z"/><path class="cls-2" d="M1028.35,407.34l-.11.12a2.89,2.89,0,0,0,.22.43Z"/><path class="cls-2" d="M980.6,533.62l0,0C980.47,533.89,980.55,533.77,980.6,533.62Z"/><path class="cls-2" d="M935.54,495.13c.92.81-1.56.95-.16,1.85C935.26,496.65,936.7,495.66,935.54,495.13Z"/><path class="cls-2" d="M910.74,584.42a3.59,3.59,0,0,1,.33-.25A1,1,0,0,0,910.74,584.42Z"/><path class="cls-2" d="M935.38,497h0l.14.09Z"/><path class="cls-2" d="M992.75,514.07a1.07,1.07,0,0,0-.44.12C992.39,514.21,992.51,514.2,992.75,514.07Z"/><path class="cls-2" d="M982.91,528.16l.35-.24A1.12,1.12,0,0,0,982.91,528.16Z"/><path class="cls-2" d="M991.49,503.73c-.06-.29,0-.43-.3-.72a.45.45,0,0,0,0,.16C991.33,503.23,991.48,503.38,991.49,503.73Z"/><path class="cls-2" d="M983.38,497.26c0,.08.08.15.11.22l.31.07Z"/><path class="cls-2" d="M993.78,424a2.48,2.48,0,0,1,.76.44C994.09,424,995.06,423.1,993.78,424Z"/><path class="cls-2" d="M910.76,584.87a.45.45,0,0,1,0-.45l-.2.21C910.6,584.75,910.67,584.85,910.76,584.87Z"/><path class="cls-2" d="M985.23,506.49a4.71,4.71,0,0,0-.22-.59A2.22,2.22,0,0,0,985.23,506.49Z"/><path class="cls-2" d="M942.27,459.59l.18-.28A.31.31,0,0,0,942.27,459.59Z"/><path class="cls-2" d="M983.12,504.55a1.31,1.31,0,0,0-.23-.78.65.65,0,0,0-.2.15C982.84,504.13,983,504.34,983.12,504.55Z"/><path class="cls-2" d="M994.54,424.43h0Z"/><path class="cls-2" d="M1001.18,417.85c-1.14.67.06,1.27.17,2-1.17,1.11-1.06-.32-1.83-.53-.67.77-.76,2.06-1.4,2.41-.15-.13-.3-.11-.29-.4-.4,1.31-2.59,1.67-3,3.28a.78.78,0,0,1-.29-.15,3.67,3.67,0,0,1,1,1.22c-.48.33-.54,1.19-1.12.68.31-.18.18-.45.2-.73l-.35.6c-1-.61.51-.76.09-1.43-.83.93-1.54,2.44-2.49,2.68-.72-.78,1.64-1.46.1-1.58l1.42-.43c-1.8-.81.8-.37-1-1.32-1.75.75-1.49,1.57-3.24,2.33,0,.71.58.65.54,1.36-1.69,2.32-3.19-1.08-4.1,1.16-.05.86.51,2.08-1.05,2.25l-.24-1.26c-1.6.9.05,2-2,2.37,0-.58,1-1.11.68-1.08-1.55-.11-.37,1-1.17,1.56l-.74-.77c-1.54,1.2-2.91,3-4.6,4.35-.07-.33,0-.8-.54-.79-2,1.93-4.9,3.1-7.42,4.06L968.2,441c-.2.12-.59-.1-.48-.38-1,.29.28.5.07,1.07-.44.38-.93,0-.77-.43-1.07,1.65-3.3,4.27-5.41,4.56l.15-.44c-1.43.55-.31,2.48-1.91,2.58l.12-.28c-2.86,1.52-5.25,4.27-8,4.62.39,1.32-2.92,1.42-2,3-2,.38-1.78-.2-4.22.89-.6.35-.13,1.53-.69,2.2l-.6-.74-.31,1.5-1.18-.51-.49.69a.77.77,0,0,1,.93.16c-.72,1.1-2.81,1.38-3.14,1l-1.81,2.5c-.19-.33.11-.75.26-1.19-.62,1.76-.86-.59-1.42,1,.29.05.27.51.37.68-.92,0-2.21,1.08-3,2.07l-.25-.65c-1.81,1.33-3.35,3.33-5.2,5.05a.8.8,0,0,1,1,1.16l-.9-.53c.08.77.82-.25.63,1-.75.56-1.24-.39-1.07-1l-.59,1.05c-.26-.17-.17-.47-.39-.8.1.77-2.14.68-1.86,1.94l-.26-.16a47.26,47.26,0,0,0-3.69,4.59c.63.59-.06,1.09.1,2-1.18,1-2.8,2.05-3.78,3.83-.34,1.45.42.72.57,1.52-.37-.14-.78.23-1.09.53s-.53.47-.55-.15a13.2,13.2,0,0,0-.93,3,9.82,9.82,0,0,0,.14,4.08c.28-.46.43-.89.7-.67a1.93,1.93,0,0,1-.09,1c-.1.3-.27.55-.46.53l-.12-.18c.48,1.08.92,2.21,1.54,3.33a14,14,0,0,0,2.23,3c1.7,1.71,3.59,2.7,5.13,2.25l-.17,0a24.13,24.13,0,0,0,2.9-.29c1.22.31-.83.48,0,1.1A7.52,7.52,0,0,1,932,502a5.81,5.81,0,0,0,3.2,0c.85,1.19,2.45,1.18,4.09,1s3.32-.46,4.52.24l-.16-.55c.59-.55.74.29,1.19.4-.08-.42-.67-.47-.31-.78,5.08-.85,10.52.27,15.62.58,1.85.08,1-2.88,3.35-1.63l-.64,1a15.22,15.22,0,0,1,5.63-.6,23.34,23.34,0,0,0,5.49-.17c-.23.22-.26.52-.6.49.68.79,2.68.3,2.78-.28.52.14,0,.55.33.9s.79.1,1.23,0,.82-.21.92.19c0,.13-.24.2-.37.23.26-.14.76,0,1.17.05s.71,0,.61-.43a3,3,0,0,0,.81.36c.27.07.55.1.8.16a1.76,1.76,0,0,1,1.27.63.65.65,0,0,1,.62-.09,2.43,2.43,0,0,1,.49.35c.28.27.53.45,1,0a.91.91,0,0,0,0,1.29,1.91,1.91,0,0,0,1.1.58c-.44.09-.19.57-.79.67a1.17,1.17,0,0,0,.43.48.94.94,0,0,0,.8,0,1.25,1.25,0,0,0-.33.48.67.67,0,0,0-.06.41,3.61,3.61,0,0,0,.32.83,1.27,1.27,0,0,1,.14.85c-.08.26-.34.47-.9.54a11.36,11.36,0,0,1-.23,3.69,19.67,19.67,0,0,1-1.18,3.65c-.58-.39-.25-1,0-1.6s.5-1.19-.18-1.46c-.48,2.26-.23,4.12-1.87,5.95-.52.41-.3-.64-.38-.94-.89,2.33-2.84,3.74-3.65,5.92-.09-.08-.05-.36,0-.6-.24.37-.8.66-.28,1l.14-.44c1.16,0,.36,2.57.67,2.95-.89-1.74-1.79,1.39-2.75-1a.85.85,0,0,0,.25,1c-.37.24-.65.18-.72-.46-.79,1.4.1,1.43-.88,2.48-.22-.2-.12-.5-.28-.85a2.87,2.87,0,0,1-1.11,2.6c-.09-.18-.36-.24-.11-.5-1.35,1.58-1.3,3.69-3.33,4.92-.47-1.42-.86.25-1.76-.48l-.64,1.11.75,0c-.78.75-.88,2-1.81,2.4l.24-.9-1.31,1.56,1.14-.48c-.39,1.19,1.09,1-.18,1.74.14-.29-.79.75-1.68.64h0a1.94,1.94,0,0,1-1.06,1.64c-.41-.13-.75-1-1-1.13.27,1.06-1.69,1.92-1.49,3.13a1.2,1.2,0,0,0-.54-.82l.2.87c-.54.16-.68.12-.94-.29-1.22.91,1.34.76-.42,1.5.06-.14-.07-.18.07-.47-1.55,1-2.27,2.7-3.77,3.51-1.14-.54.9-1.17-.17-1.53-1.65,1.74-2.82,4.31-4.77,5.61l.41-.18c.82,1.45-1.83.51-2.23,1.85.14-.28-.3-.94-.24-.75-1.39.82-2.23,2.4-3.76,4.33l0-.51c-1,.31-2,1.4-2.94,1.89,0,.52-.46.83.19,1.08-3.92.12-3.83,4.75-7.24,4.92.25-.21.39-.77.18-.61l-1.61,1.77c.59.44.51.14,1.24.27a2,2,0,0,1-.75,1.55c.54-1-.72-.89-1.32-.92.19.12.22.41.38.56-1.75-.23.73,1.25-1.13,1.63l-.16-.35c-.38.54-.53,1.28-1.13,1.62-.73-.48.29-.72-.09-1.28-.73.62-.53,2.39-1.72,2.27.18-.43.64-.79.82-1.22a2.13,2.13,0,0,0-1.92.38l.07,0-1.55.64.49,0c.36,2.43-1.69,1.8-2.11,3.89.43-2-.27-.77-.74-1.58-.48,0-1.15.19-1.17-.13-.15,1.06-1.37.3-1.56,1.83-.22-.21-.66.47-1-.24-.65.79.5.28.66.63-.59,1.74-3.6,1.17-4.51,3.61-1.17,1.6-.84,2.62-2,4.08-.76,0-.26-1.17-.26-1.17a3,3,0,0,0-2.08,1.52c0-.32-.3-.38-.72-.49-.53.49.27,1.17-.76,1.38a4.14,4.14,0,0,1-.14-1.4c-.52.73-.87,1.68-1.41,2.42-.5-.28,0-1,0-1.41-.66.78-1.79,1.9-1.54,2.75l.69-.14c-.27.25-.58-.46-.45-.74.3-1,1.16-.5,1.37-.28l-.39.53c1.57,1,1.87-1.73,2.94-2.4l.34,1.34.41-1.63c.42.11,1,.57.61,1.1,1.11,0,.38-.85,1.42-.75.14,0,.15.11.11.2l.48-.84c0,.32.66.64.12.82,1.72-.36,1.48-2.31,2.54-1.89l-.06.14c1.51-1.67-.39-.88.27-2.76l2.29,1.19-.39-.89c.2-.11.6-.32.76,0,.29-1-.36-.24-.33-1,1.39,0,2.16-2.15,3.27-1.11-.12-.8-1.17.2-.54-.91,1.24,1.09.91-1,2.15-1.06.27.85-.76,1.08.49,1.06-.37-1.49,1.74-1,2.25-1.68-.65-.91,1.17-1.49,2.07-2.66.16.36,2.48-1.15,3.78-1.65l.08.17c-.5-1,.71-1.72,1.34-2.52a1.25,1.25,0,0,1,.18,1.45l.73-.58a1.5,1.5,0,0,1,.45-1.23l.34.81c1-.81,1.35-2.34,3-2.9-.42-.67-2.36-.92-1.38-2.38.32.29.82.82.59,1.23.08-.13.18-.6.52-.64l-.08,1c.77-.21-.08-.7.42-1,.37.48.61.06.84.49-.07.14-.55.12-.57.45a2.64,2.64,0,0,1,1.92-.35c-.27-.23-.52-.64-.19-1,.93-.82.79.3,1.55.09,0-.52.86-.68.3-1.4.29-.23.61.06.87.16.25-.72,2.26-2,1.08-2.28l-.17,0s0,0,.06-.09h0c1-2,3.7-2.4,5-4.05l.2.24c.73-1.07,2-2,2.24-3,.28-.24,1-.15,1.14.23.57-.8.43-1.12,1.8-1.65-.37,1,.56.14-.49.94,1.11-.62,1.65-.44,2.11-1.94.17.89,1.35.12,1.64-.45l-1,.16a6,6,0,0,1,1.39-1.2l.44,1c2.75-.77,2-4.65,4.84-4.42,0-1-1.36.57-1.48-.46.95-.68,2.85-.44,3.12-.69,1.57-.69.08-2.12,1.56-3a1.12,1.12,0,0,1-.56-1.8c.94-.7,2.1.11,1.78.84-.19.21-.37.22-.44.13-.18.35-.44.81.17.78l-.14-.37c.68-.13,1.82-1.3,2-.6.4-.88-.14-.7-.75-.37,1.46-.68,1.7-1.64,3.06-2.5-.32,0-.79-.1-.61-.28,1.93-1.3.22-1.19,1.18-2.41,1-.25.73,1.15,1.48-.3.93-.43.84.53.79,1,.48-1.52,2.18-1.62,2.84-2.15l-.3.76a3.05,3.05,0,0,1,.69-1l-.83-.17c.4-.24.65-.52.87-.31-.05-.66-1.13-.56-1-1.67.67-.19.89-1.6,1.76-1.11-1.48,1.17.86.49-.07,1.78a1.79,1.79,0,0,1,.76-.83c.13,0,.11.18.07.31,1.84-.78-.28-1.35.95-2.73a.7.7,0,0,0,1.17,0c-.49.57-.92-.32-.81-1.11,1.09-.64.57-1.2,1-1.65l-.6.43c-.27-.54.16-.94.53-1.7.38.21-.23.77.1.66-.1-.66.41-.91,1-1.18s1.2-.57,1.32-1.28c.65-.27.87.56,1.38.27a1.56,1.56,0,0,1,.92-1.25,1.7,1.7,0,0,0,1-1.27c-.87,0-.75.13-.76-1.16-.32.8-.64,1.6-1,2.39,0-.65,0-1.29,0-1.94-.41.63-.51,1.58-.87,1.89-.06-1,0-.8-.66-.86,1.5-.22.61-2,1.85-2.63l1.53,1a3.32,3.32,0,0,0,1.25-2.34,7.35,7.35,0,0,1,1-3l-.62.59c-.26-.3-.13-.65.08-1a3.21,3.21,0,0,0,.45-1.24c.55.28.93-.12,1.41-.34-.22-.05-.06-.49,0-1a1.16,1.16,0,0,0-.55-1.35,13.58,13.58,0,0,0,1-1,2.33,2.33,0,0,0,0-1.38,3.58,3.58,0,0,0-.55-1,3.92,3.92,0,0,1-1-2.16,1.08,1.08,0,0,0,.89.09c.25,0,.51,0,.83.79-.06-.77-.13-1.5-.54-1.41.15-.27-.22-.75-.56-1.22s-.75-.91-.68-1.35c-.4-.16-1,.07-1.38-.59.05-.14.24-.17.24-.17-.23.13-1.08-.69-1.18.24a2.48,2.48,0,0,0-.67-1.84,5.86,5.86,0,0,0-1.67-1.24c-1.24-.66-2.46-1-3-2.09-1.41-.28-3-.47-4.24-.65.11-.16.06-.29.27-.19-.78-.44-1.11-.05-1.46.33a1.12,1.12,0,0,1-1.58.32c-.83-1.1,1-.4.51-.85,0-1-.59-1-1.3-.92s-1.56.3-2.15-.33l.32-.09c-.93-.75-2.41.59-4,.41a.41.41,0,0,0,0-.3c-1.1,1-3.09,1.3-4.57,1.6.45-.78.67-.41.38-1.21-.66.12.21,1.27-1.11,1.51-.44-.42-1.4-.78-1.54-1.62l1.25-.07c-.66-1.09-1.63.07-2.29-.11l.07-.48c-1.92.21-1.9,1.43-4,1.42l.23.36c-1.07,1.24-1-.64-2,.3l-.39-1.2a23.06,23.06,0,0,1-3.83,1.6c.7-.94,2.22-1.48,3.15-2.06-.73,0-2.48.21-2.82.83.28-.13.64-.45.94-.28a4.56,4.56,0,0,1-3.45,1.59c.14-2.37-3.81-.41-4.93-2.21-2.51,1-5-.19-7.93-.06,1,1.84-.85,0-.69,1.92-.69.11-.95.08-1-.05-.68-.39-1.35-.79-2-1.2-.45-.57.65-.39.61-.81-1.43-.22-.56-.83-1.46-1.39.14.69-.56.93-1.33.6l1,1a1.33,1.33,0,0,1-1.81-.46,1.32,1.32,0,0,0-1.72-.55l.68-.49a10.21,10.21,0,0,1-2.18-.11A3,3,0,0,0,925,494c-.05-.26,0-.79.37-.78a14.41,14.41,0,0,0-2.13-.78,1.08,1.08,0,0,1-.63-.59.81.81,0,0,1,.18-.86l.46.11c-.08-.11-.27-.24-.4-.39s-.16-.32.1-.47c.18.07.42.21.48.08a1.71,1.71,0,0,1-.28-.63.82.82,0,0,1,.16-.82c.11.2.23.39.35.57a3.89,3.89,0,0,0,.67-2.48,6.46,6.46,0,0,1,.47-2.81c1.1.77,2.54-.43,3.31-1l.13.15c1.88-2,2.32-4.32,3.87-6.61,1.11-.06,2.23-.93,3.42-1.92a18.09,18.09,0,0,1,3.73-2.69c-.47.09-.64-.84-.36-1.26.67-.2.74-1.87,1.47-.85l-.19.13c1.15.62,1.94-.47,2.75-1.09l-.9-1.36c1.79.05,3-1.22,4.13-2.41s2.1-2.32,3.33-1.92c.27-.72.91-1.21,1.18-1.92l.5.71a19.23,19.23,0,0,0,4-2.86v.77c1.05-.69-.21-3,.7-3.7l1,.85c1.77-1.32,4.24-1.68,5.34-3.9.08.17.24.52,0,.77.86-.58,3.79-1.59,2.45-2.84.69.94,1.94-1.2,2.63-2.31l.33.81c.21-1.47.06-1.73,1.05-2.78.34-.1.63.4.14.47,1.17-.26.26-1.16,1.63-1.54l-.11.73c1-.59.74-.78.91-1.66a2,2,0,0,1,2.49-.49,1.26,1.26,0,0,1,.72-1.54.53.53,0,0,1,.08.62c1.91-.58,1.81-2.41,3.37-2.44a.69.69,0,0,0,.47.31,13.91,13.91,0,0,1-2.26,1.34c.44.66,1.54.1,1.34,1.55.48-1,1.17-3.06,2.37-3.4a.81.81,0,0,1,.28.14l0,.14a1,1,0,0,0,.56-.52,3.53,3.53,0,0,0,1-.35c.47.47,1.37-.47,1.89-.78-.51-.7.23-1-.78-1.21.11,0,0,.15-.37.4a.93.93,0,0,0-.16.22v-.08c-.32.24-.75.54-1.24.88.16-.63.38-1.22,1.21-1.19,0-.64-.07-1.31,0-1.64,1.36.55,3.07.22,3.67.72,1.3-1.43,3.52-2.66,3.63-4.66.33-.47.77.06,1.07.17-.17.3-.49.48-.5.76.67-.92,2.56-1.83,2.16-2.93,1.41-.28-.07,1.29,1.39.15l0,.42c4-.4,3.43-5.61,8.08-5.76-.31,0-.46,0-.61-.09,4.42-1.56,7.51-5.81,12.22-6.78,1.27-.39,1-1.08,1.4-2l.72.65.59-1.62c1.21-1.66,4,.24,5.29-2.28l-.59-.37c.8-.35,2.15-1.73,2.4-1,0-.14-.09-.7.37-.6l.27.4,1.39-1.81c1.6-.54.77,1.79,2.89.64.66-.62,1.45-2.52,1-2.63a1,1,0,0,1-1.22-.19l.57-.64c-.61-1.31-.82-2.89-3.06-2.72l-.75,1.47-.75-.36,1-.65c-.91-.21-1,.5-1.18,1.09a1.22,1.22,0,0,0-.9-.36l-.47,1.88c-.44-.39,0-1.27-1-1.06-.22.88,1.18.76.48,1.67-.91-.21-1-.77-1.4.11a.58.58,0,0,1-.08-.84c-.38.74-1.5,1.11-1.41,1.95-1-.32-1.92,1.41-2.56.21a3.57,3.57,0,0,1-1,1.93c.17-2-2.1,1.18-2.74-.47,0,1.7-2.35,2.19-3.24,3.69,0-.15,0-.44.19-.44-.81.35-1.25.1-1.87.16.53,1.09-.47,2-.7,3-1.52-.43-.2-1.54-1.07-2.32.56.81-1.06,1.8-.32,2.31-1.07-.19-.78.07-1.67-.56.68,1.36-.51.61-.59,1.76-1.39,0-1-1-1.86,0C1000.48,418.91,1001.18,417.85,1001.18,417.85Zm-24.54,18.78h0l.5-.39Zm-2.15,1.44a9.27,9.27,0,0,0,1-.59c.24.2.33.51.1.64C975.55,437.88,975,438.07,974.49,438.07Zm7.86,2c-.28.33-.48.26-.63.14a4.68,4.68,0,0,0,.54-.47s0-.08,0-.12A1.4,1.4,0,0,1,982.35,440.07Z"/><path class="cls-2" d="M982.33,438.72s0-.09.11-.14l-.31,0,0,.31Z"/><path class="cls-2" d="M945.47,562.26l0,0a.44.44,0,0,1-.16,0Z"/><polygon class="cls-2" points="944.3 457.46 944.43 457.63 944.5 457.34 944.3 457.46"/><path class="cls-2" d="M932.54,568.84a.48.48,0,0,0-.29-.06A.6.6,0,0,0,932.54,568.84Z"/><path class="cls-2" d="M927.59,572.45l-.87.29A3.78,3.78,0,0,0,927.59,572.45Z"/><path class="cls-2" d="M923.6,575a1.46,1.46,0,0,0,.15.35h0Z"/><path class="cls-2" d="M978.2,524.78a.8.8,0,0,0,.08-.16C978.4,524.19,978.28,524.45,978.2,524.78Z"/><path class="cls-2" d="M964.55,542.13a4.56,4.56,0,0,1,.24-.79C964.46,541.56,964.22,541.76,964.55,542.13Z"/><path class="cls-2" d="M985.25,506.56h0l0-.06Z"/><path class="cls-2" d="M965.55,540.64a1.26,1.26,0,0,0-.76.7A1.9,1.9,0,0,0,965.55,540.64Z"/><path class="cls-2" d="M907,586.92l-.2.1a.3.3,0,0,1,.06.13Z"/><path class="cls-2" d="M906.9,587.15l-.14.23C906.85,587.31,906.93,587.25,906.9,587.15Z"/><path class="cls-2" d="M906.46,587.87l.3-.49C906.61,587.49,906.41,587.6,906.46,587.87Z"/><path class="cls-2" d="M912.29,583.53l-.13-.29A.76.76,0,0,0,912.29,583.53Z"/><path class="cls-2" d="M913.76,582.33c-.41.21-1.31.14-1.7.67l.1.24C912.12,582.68,913.73,583,913.76,582.33Z"/><path class="cls-2" d="M922.42,580.66l-1.42.77c.42.1,1,.23.45.73C923.66,581.75,920.67,581.82,922.42,580.66Z"/><path class="cls-2" d="M926.64,578.05c-.58.65.3.38.38.56C927.27,578,927.33,577.9,926.64,578.05Z"/><path class="cls-2" d="M954.46,555.6l.45.66C955.34,555.74,954.71,556,954.46,555.6Z"/><polygon class="cls-2" points="956.91 548.05 956.11 548.11 956.36 548.85 956.91 548.05"/><polygon class="cls-2" points="963.66 549.53 963.52 549.81 964.15 548.85 963.66 549.53"/><path class="cls-2" d="M985.32,497.19l-.18,1a.71.71,0,0,0,.64-.43C985.88,497.51,985.78,497.22,985.32,497.19Z"/><path class="cls-2" d="M958.37,495.7a1,1,0,0,0-1.48-.26C957.48,495.48,958.08,495.83,958.37,495.7Z"/><polygon class="cls-2" points="943.76 467.81 943.57 468.39 944.14 467.57 943.76 467.81"/><g class="cls-3"><path class="cls-4" d="M981.91,598.23l8.88-2.94,2.77,8.38-28.94,9.57-2.77-8.37,9.29-3.08-5.92-17.88a35.29,35.29,0,0,1-7.36,5.49l-2.8-8.46q7.44-4.4,8.83-9.83l8.15-2.7Z"/></g><circle class="cls-5" cx="1038.86" cy="402.74" r="4.6"/></svg>